<?xml version="1.0" encoding="UTF-8" standalone="no"?>
<svg
   height="24"
   viewBox="0 -960 960 960"
   width="24"
   fill="#bdd6ac"
   version="1.1"
   id="svg1"
   sodipodi:docname="SCM_DolphinTiming_Collection.svg"
   inkscape:version="1.4 (86a8ad7, 2024-10-11)"
   inkscape:export-filename="..\PNG\time_manual_Blue.png"
   inkscape:export-xdpi="256"
   inkscape:export-ydpi="256"
   xml:space="preserve"
   inkscape:export-batch-path="..\SVG"
   inkscape:export-batch-name=""
   xmlns:inkscape="http://www.inkscape.org/namespaces/inkscape"
   xmlns:sodipodi="http://sodipodi.sourceforge.net/DTD/sodipodi-0.dtd"
   xmlns="http://www.w3.org/2000/svg"
   xmlns:svg="http://www.w3.org/2000/svg"><defs
     id="defs1" /><sodipodi:namedview
     id="namedview1"
     pagecolor="#ffffff"
     bordercolor="#666666"
     borderopacity="1.0"
     inkscape:showpageshadow="2"
     inkscape:pageopacity="0.0"
     inkscape:pagecheckerboard="0"
     inkscape:deskcolor="#d1d1d1"
     showgrid="false"
     inkscape:zoom="6.9398215"
     inkscape:cx="61.240768"
     inkscape:cy="36.816509"
     inkscape:window-width="2560"
     inkscape:window-height="1377"
     inkscape:window-x="-8"
     inkscape:window-y="-8"
     inkscape:window-maximized="1"
     inkscape:current-layer="svg1"
     showguides="true"><inkscape:page
       x="0"
       y="0"
       width="960"
       height="960"
       id="page34"
       margin="0"
       bleed="0"
       inkscape:label="ActiveRTAutomatic"
       inkscape:export-filename="ActiveRTAutomatic.png"
       inkscape:export-xdpi="256"
       inkscape:export-ydpi="256" /><sodipodi:guide
       position="786.98307,-105.64807"
       orientation="0,-1"
       id="guide44"
       inkscape:locked="false" /><sodipodi:guide
       position="9923.1605,615.41919"
       orientation="1,0"
       id="guide45"
       inkscape:locked="false" /><sodipodi:guide
       position="8970.7774,679.23045"
       orientation="1,0"
       id="guide46"
       inkscape:locked="false" /><sodipodi:guide
       position="1198.8781,2204.9888"
       orientation="1,0"
       id="guide47"
       inkscape:locked="false" /><sodipodi:guide
       position="7204.7963,2176.1696"
       orientation="1,0"
       id="guide1"
       inkscape:locked="false" /><sodipodi:guide
       position="4801.2762,1934.0885"
       orientation="1,0"
       id="guide2"
       inkscape:locked="false" /><sodipodi:guide
       position="3602.3981,2049.3652"
       orientation="1,0"
       id="guide3"
       inkscape:locked="false" /><sodipodi:guide
       position="2397.7562,2049.3652"
       orientation="1,0"
       id="guide4"
       inkscape:locked="false" /><sodipodi:guide
       position="939.55578,-1174.5035"
       orientation="0,-1"
       id="guide5"
       inkscape:locked="false" /><sodipodi:guide
       position="6000.1543,2308.7379"
       orientation="1,0"
       id="guide6"
       inkscape:locked="false" /><sodipodi:guide
       position="5311.3758,960"
       orientation="0,-1"
       id="guide7"
       inkscape:locked="false" /><sodipodi:guide
       position="7.3896445e-12,1980.1992"
       orientation="1,0"
       id="guide8"
       inkscape:locked="false" /></sodipodi:namedview><g
     inkscape:groupmode="layer"
     id="layer2"
     inkscape:label="ActiveRT_Automatic"
     style="display:inline"
     transform="translate(1112.4205)"><path
       d="m -822.00007,-237.54674 h 87.68055 l 27.25206,-77.14422 h 146.92417 l 27.25206,77.14422 h 90.0503 l -142.18468,-372.49637 h -94.78978 z m 137.44519,-141.06372 52.13438,-145.47195 50.94951,145.47195 z m -90.0503,-476.09003 v -88.16482 h 284.36936 v 88.16482 z m 142.18468,837.565797 q -87.68055,0 -165.28969,-31.408714 -77.60913,-31.40872 -135.66788,-85.409673 -58.05874,-54.00095 -91.82763,-126.1859 -33.7688,-72.18495 -33.7688,-153.7374 0,-81.55246 33.7688,-153.73741 33.76889,-72.18495 91.82763,-126.1859 58.05875,-54.00095 135.66788,-85.40967 77.60914,-31.40872 165.28969,-31.40872 73.46208,0 140.9998,22.04121 67.53773,22.0412 126.78134,63.91949 l 66.35285,-61.71537 66.35285,61.71537 -66.35285,61.71538 q 45.02515,55.10301 68.72259,117.92045 23.69745,62.81743 23.69745,131.14517 0,81.55245 -33.76886,153.7374 -33.76886,72.18495 -91.8276,126.1859 -58.05875,54.000953 -135.66788,85.409673 -77.60914,31.408714 -165.28969,31.408714 z m 0,-88.164817 q 137.44519,0 234.60472,-90.36894 97.15953,-90.36894 97.15953,-218.20793 0,-127.83899 -97.15953,-218.20794 -97.15953,-90.36894 -234.60472,-90.36894 -137.44519,0 -234.60472,90.36894 -97.15953,90.36895 -97.15953,218.20794 0,127.83899 97.15953,218.20793 97.15953,90.36894 234.60472,90.36894 z m 0,-308.57687 z"
       id="path1"
       style="display:inline;fill:#9acd32;stroke-width:1.14272" /></g></svg>
