<?xml version="1.0" encoding="UTF-8" standalone="no"?>
<svg
   height="24"
   viewBox="0 -960 960 960"
   width="24"
   fill="#bdd6ac"
   version="1.1"
   id="svg1"
   sodipodi:docname="SCM_DolphinTiming_Collection.svg"
   inkscape:version="1.4 (86a8ad7, 2024-10-11)"
   inkscape:export-filename="..\PNG\time_manual_Blue.png"
   inkscape:export-xdpi="256"
   inkscape:export-ydpi="256"
   xml:space="preserve"
   inkscape:export-batch-path="..\SVG"
   inkscape:export-batch-name=""
   xmlns:inkscape="http://www.inkscape.org/namespaces/inkscape"
   xmlns:sodipodi="http://sodipodi.sourceforge.net/DTD/sodipodi-0.dtd"
   xmlns="http://www.w3.org/2000/svg"
   xmlns:svg="http://www.w3.org/2000/svg"><defs
     id="defs1" /><sodipodi:namedview
     id="namedview1"
     pagecolor="#ffffff"
     bordercolor="#666666"
     borderopacity="1.0"
     inkscape:showpageshadow="2"
     inkscape:pageopacity="0.0"
     inkscape:pagecheckerboard="0"
     inkscape:deskcolor="#d1d1d1"
     showgrid="false"
     inkscape:zoom="6.9398215"
     inkscape:cx="61.240768"
     inkscape:cy="36.816509"
     inkscape:window-width="2560"
     inkscape:window-height="1377"
     inkscape:window-x="-8"
     inkscape:window-y="-8"
     inkscape:window-maximized="1"
     inkscape:current-layer="svg1"
     showguides="true"><inkscape:page
       x="0"
       y="0"
       width="960"
       height="960"
       id="page38"
       margin="0"
       bleed="0"
       inkscape:label="ActiveRTNone" /><sodipodi:guide
       position="-4014.2935,-105.64807"
       orientation="0,-1"
       id="guide44"
       inkscape:locked="false" /><sodipodi:guide
       position="5121.8838,615.41919"
       orientation="1,0"
       id="guide45"
       inkscape:locked="false" /><sodipodi:guide
       position="4169.5007,679.23045"
       orientation="1,0"
       id="guide46"
       inkscape:locked="false" /><sodipodi:guide
       position="-3602.3985,2204.9888"
       orientation="1,0"
       id="guide47"
       inkscape:locked="false" /><sodipodi:guide
       position="2403.5196,2176.1696"
       orientation="1,0"
       id="guide1"
       inkscape:locked="false" /><sodipodi:guide
       position="-0.00054003906,1934.0885"
       orientation="1,0"
       id="guide2"
       inkscape:locked="false" /><sodipodi:guide
       position="-1198.8786,2049.3652"
       orientation="1,0"
       id="guide3"
       inkscape:locked="false" /><sodipodi:guide
       position="-2403.5204,2049.3652"
       orientation="1,0"
       id="guide4"
       inkscape:locked="false" /><sodipodi:guide
       position="-3861.7208,-1174.5035"
       orientation="0,-1"
       id="guide5"
       inkscape:locked="false" /><sodipodi:guide
       position="1198.8776,2308.7379"
       orientation="1,0"
       id="guide6"
       inkscape:locked="false" /><sodipodi:guide
       position="510.09906,960"
       orientation="0,-1"
       id="guide7"
       inkscape:locked="false" /><sodipodi:guide
       position="-4801.2767,1980.1992"
       orientation="1,0"
       id="guide8"
       inkscape:locked="false" /></sodipodi:namedview><g
     style="fill:#ff6347;fill-opacity:1"
     id="g43"
     transform="translate(-4.4003906e-4)"
     inkscape:label="ActiveRT_None"><path
       d="M 480,-80 Q 397,-80 324,-111.5 251,-143 197,-197 143,-251 111.5,-324 80,-397 80,-480 q 0,-83 31.5,-156 31.5,-73 85.5,-127 54,-54 127,-85.5 73,-31.5 156,-31.5 83,0 156,31.5 73,31.5 127,85.5 54,54 85.5,127 31.5,73 31.5,156 0,83 -31.5,156 -31.5,73 -85.5,127 -54,54 -127,85.5 Q 563,-80 480,-80 Z m 0,-80 q 54,0 104,-17.5 50,-17.5 92,-50.5 L 228,-676 q -33,42 -50.5,92 -17.5,50 -17.5,104 0,134 93,227 93,93 227,93 z m 252,-124 q 33,-42 50.5,-92 17.5,-50 17.5,-104 0,-134 -93,-227 -93,-93 -227,-93 -54,0 -104,17.5 -50,17.5 -92,50.5 z"
       id="path1-6"
       style="fill:#ff6347;fill-opacity:1" /></g></svg>
