<?xml version="1.0" encoding="UTF-8" standalone="no"?>
<svg
   height="24"
   viewBox="0 -960 960 960"
   width="24"
   fill="#bdd6ac"
   version="1.1"
   id="svg1"
   sodipodi:docname="SCM_DolphinTiming_Collection.svg"
   inkscape:version="1.4 (86a8ad7, 2024-10-11)"
   inkscape:export-filename="..\PNG\time_manual_Blue.png"
   inkscape:export-xdpi="256"
   inkscape:export-ydpi="256"
   xml:space="preserve"
   inkscape:export-batch-path="..\SVG"
   inkscape:export-batch-name=""
   xmlns:inkscape="http://www.inkscape.org/namespaces/inkscape"
   xmlns:sodipodi="http://sodipodi.sourceforge.net/DTD/sodipodi-0.dtd"
   xmlns="http://www.w3.org/2000/svg"
   xmlns:svg="http://www.w3.org/2000/svg"><defs
     id="defs1" /><sodipodi:namedview
     id="namedview1"
     pagecolor="#ffffff"
     bordercolor="#666666"
     borderopacity="1.0"
     inkscape:showpageshadow="2"
     inkscape:pageopacity="0.0"
     inkscape:pagecheckerboard="0"
     inkscape:deskcolor="#d1d1d1"
     showgrid="false"
     inkscape:zoom="6.9398215"
     inkscape:cx="61.240768"
     inkscape:cy="36.816509"
     inkscape:window-width="2560"
     inkscape:window-height="1377"
     inkscape:window-x="-8"
     inkscape:window-y="-8"
     inkscape:window-maximized="1"
     inkscape:current-layer="svg1"
     showguides="true"><sodipodi:guide
       position="-5213.1714,959.99995"
       orientation="0,-1"
       id="guide44"
       inkscape:locked="false" /><sodipodi:guide
       position="3923.0059,1681.0673"
       orientation="1,0"
       id="guide45"
       inkscape:locked="false" /><sodipodi:guide
       position="2970.6228,1744.8785"
       orientation="1,0"
       id="guide46"
       inkscape:locked="false" /><sodipodi:guide
       position="-4801.2763,3270.6369"
       orientation="1,0"
       id="guide47"
       inkscape:locked="false" /><sodipodi:guide
       position="1204.6417,3241.8177"
       orientation="1,0"
       id="guide1"
       inkscape:locked="false" /><sodipodi:guide
       position="-1198.8786,2999.7366"
       orientation="1,0"
       id="guide2"
       inkscape:locked="false" /><sodipodi:guide
       position="-2397.7565,3115.0133"
       orientation="1,0"
       id="guide3"
       inkscape:locked="false" /><sodipodi:guide
       position="-3602.3983,3115.0133"
       orientation="1,0"
       id="guide4"
       inkscape:locked="false" /><sodipodi:guide
       position="-5060.5987,-108.85543"
       orientation="0,-1"
       id="guide5"
       inkscape:locked="false" /><sodipodi:guide
       position="-0.00024765625,3374.386"
       orientation="1,0"
       id="guide6"
       inkscape:locked="false" /><sodipodi:guide
       position="-688.77905,2025.6481"
       orientation="0,-1"
       id="guide7"
       inkscape:locked="false" /><sodipodi:guide
       position="-6000.1546,3045.8473"
       orientation="1,0"
       id="guide8"
       inkscape:locked="false" /><inkscape:page
       x="0"
       y="0"
       width="960"
       height="960"
       id="page8"
       margin="0"
       bleed="0"
       inkscape:label="AutoPatch" /><sodipodi:guide
       position="-78.237648,878.35305"
       orientation="0,-1"
       id="guide15"
       inkscape:locked="false" /><sodipodi:guide
       position="-129.18335,79.526053"
       orientation="0,-1"
       id="guide16"
       inkscape:locked="false" /></sodipodi:namedview><g
     inkscape:groupmode="layer"
     id="layer5"
     inkscape:label="AutoPatch"
     transform="translate(-6000.1546,-1065.6481)"><path
       d="m 6160.1543,980.12203 c -34.6667,-9.3333 -63.3333,-28 -86,-56 -22.6667,-28 -34,-60.66667 -34,-98 0,-44 15.6667,-81.66667 47,-113 31.3333,-31.33333 69,-47 113,-47 37.3333,0 70,11.33333 98,34 28,22.66667 46.6667,51.33333 56,86 h 251 c 9.3333,-34.66667 28,-63.33333 56,-86 28,-22.66667 61,-34 99,-34 44,0 81.6667,15.66667 113,47 31.3333,31.33333 47,69 47,113 0,44 -15.6667,81.66667 -47,113 -31.3333,31.3333 -69,47 -113,47 -38,0 -71,-11.3333 -99,-34 -28,-22.66667 -46.6667,-51.33333 -56,-86 h -251 c -7.3333,28 -21.1667,52.16667 -41.5,72.5 -20.3333,20.33333 -44.5,34.1667 -72.5,41.5 0,0 -26.3992,5.4857 -39.8199,5.4857 -13.4206,0 -40.1801,-5.4857 -40.1801,-5.4857 z m 40,-74 c 22,0 40.8333,-7.83333 56.5,-23.5 15.6667,-15.66667 23.5,-34.5 23.5,-56.5 0,-22 -7.8333,-40.83333 -23.5,-56.5 -15.6667,-15.66667 -34.5,-23.5 -56.5,-23.5 -21.3333,0 -40,7.83333 -56,23.5 -16,15.66667 -24,34.5 -24,56.5 0,22 8,40.83333 24,56.5 16,15.66667 34.6667,23.5 56,23.5 z m 560,0 c 22,0 40.8333,-7.83333 56.5,-23.5 15.6667,-15.66667 23.5,-34.5 23.5,-56.5 0,-22 -7.8333,-40.83333 -23.5,-56.5 -15.6667,-15.66667 -34.5,-23.5 -56.5,-23.5 -22,0 -40.8333,7.83333 -56.5,23.5 -15.6667,15.66667 -23.5,34.5 -23.5,56.5 0,22 7.8333,40.83333 23.5,56.5 15.6667,15.66667 34.5,23.5 56.5,23.5 z"
       id="path15"
       sodipodi:nodetypes="csssssccsssssssccscscssssssssssssssssss"
       style="display:inline;fill:#9acd32;fill-opacity:1"
       inkscape:label="pathPatchBottom" /><path
       d="m 6160.1543,501.29498 c -34.6667,-9.33333 -63.3333,-28 -86,-56 -22.6667,-28 -34,-60.66667 -34,-98 0,-44 15.6667,-81.66667 47,-113 31.3333,-31.33333 69,-47 113,-47 37.3333,0 70,11.33333 98,34 28,22.66667 46.6667,51.33333 56,86 h 251 c 9.3333,-34.66667 28,-63.33333 56,-86 28,-22.66667 61,-34 99,-34 44,0 81.6667,15.66667 113,47 31.3333,31.33333 47,69 47,113 0,44 -15.6667,81.66667 -47,113 -31.3333,31.33333 -69,47 -113,47 -38,0 -71,-11.33333 -99,-34 -28,-22.66667 -46.6667,-51.33333 -56,-86 h -251 c -7.3333,28 -21.1667,52.16667 -41.5,72.5 -20.3333,20.33333 -44.5,34.16667 -72.5,41.5 0,0 -26.3992,5.4857 -39.8199,5.4857 -13.4206,0 -40.1801,-5.4857 -40.1801,-5.4857 z m 40,-74 c 22,0 40.8333,-7.83333 56.5,-23.5 15.6667,-15.66667 23.5,-34.5 23.5,-56.5 0,-22 -7.8333,-40.83333 -23.5,-56.5 -15.6667,-15.66667 -34.5,-23.5 -56.5,-23.5 -21.3333,0 -40,7.83333 -56,23.5 -16,15.66667 -24,34.5 -24,56.5 0,22 8,40.83333 24,56.5 16,15.66667 34.6667,23.5 56,23.5 z m 560,0 c 22,0 40.8333,-7.83333 56.5,-23.5 15.6667,-15.66667 23.5,-34.5 23.5,-56.5 0,-22 -7.8333,-40.83333 -23.5,-56.5 -15.6667,-15.66667 -34.5,-23.5 -56.5,-23.5 -22,0 -40.8333,7.83333 -56.5,23.5 -15.6667,15.66667 -23.5,34.5 -23.5,56.5 0,22 7.8333,40.83333 23.5,56.5 15.6667,15.66667 34.5,23.5 56.5,23.5 z"
       id="path14"
       sodipodi:nodetypes="csssssccsssssssccscscssssssssssssssssss"
       style="display:inline;fill:#9acd32;fill-opacity:1"
       inkscape:label="pathPatchTop" /><g
       inkscape:groupmode="layer"
       id="layer6"
       inkscape:label="OrgAlign"
       style="display:none"><path
         d="m 6160.1543,459.64803 c -34.6667,-9.33333 -63.3333,-28 -86,-56 -22.6667,-28 -34,-60.66667 -34,-98 0,-44 15.6667,-81.66667 47,-113 31.3333,-31.33333 69,-47 113,-47 37.3333,0 70,11.33333 98,34 28,22.66667 46.6667,51.33333 56,86 h 251 c 9.3333,-34.66667 28,-63.33333 56,-86 28,-22.66667 61,-34 99,-34 44,0 81.6667,15.66667 113,47 31.3333,31.33333 47,69 47,113 0,44 -15.6667,81.66667 -47,113 -31.3333,31.33333 -69,47 -113,47 -38,0 -71,-11.33333 -99,-34 -28,-22.66667 -46.6667,-51.33333 -56,-86 h -251 c -7.3333,28 -21.1667,52.16667 -41.5,72.5 -20.3333,20.33333 -44.5,34.16667 -72.5,41.5 v 251 c 34.6667,9.33333 63.3333,28 86,56 11.3333,14 19.8333,29.25 25.5,45.75 5.6667,16.5 8.5,34.25 8.5,53.25 0,22 -3.9167,42.41667 -11.75,61.25 -7.8333,18.83334 -19.5833,36.08334 -35.25,51.75 -31.3333,31.33327 -69,46.99997 -113,46.99997 -44,0 -81.6667,-15.6667 -113,-46.99997 -31.3333,-31.33333 -47,-69 -47,-113 0,-38 11.3333,-71 34,-99 11.3333,-14 24.1667,-25.66667 38.5,-35 14.3333,-9.33333 30.1666,-16.33333 47.5,-21 m 0,0 v -251 m 40,486 c 22,0 40.8333,-8 56.5,-24 15.6667,-16 23.5,-34.66667 23.5,-56 0,-22 -7.8333,-40.83333 -23.5,-56.5 -15.6667,-15.66667 -34.5,-23.5 -56.5,-23.5 -21.3333,0 -40,7.83333 -56,23.5 -16,15.66667 -24,34.5 -24,56.5 0,21.33333 8,40 24,56 16,16 34.6667,24 56,24 z m 0,-560 c 22,0 40.8333,-7.83333 56.5,-23.5 15.6667,-15.66667 23.5,-34.5 23.5,-56.5 0,-22 -7.8333,-40.83333 -23.5,-56.5 -15.6667,-15.66667 -34.5,-23.5 -56.5,-23.5 -21.3333,0 -40,7.83333 -56,23.5 -16,15.66667 -24,34.5 -24,56.5 0,22 8,40.83333 24,56.5 16,15.66667 34.6667,23.5 56,23.5 z m 560,639.99997 c -44,0 -81.6667,-15.6667 -113,-46.99997 -31.3333,-31.33333 -47,-69 -47,-113 0,-44 15.6667,-81.66667 47,-113 31.3333,-31.33333 69,-47 113,-47 44,0 81.6667,15.66667 113,47 31.3333,31.33333 47,69 47,113 0,44 -15.6667,81.66667 -47,113 -31.3333,31.33327 -69,46.99997 -113,46.99997 z m 0,-79.99997 c 22,0 40.8333,-8 56.5,-24 15.6667,-16 23.5,-34.66667 23.5,-56 0,-22 -7.8333,-40.83333 -23.5,-56.5 -15.6667,-15.66667 -34.5,-23.5 -56.5,-23.5 -22,0 -40.8333,7.83333 -56.5,23.5 -15.6667,15.66667 -23.5,34.5 -23.5,56.5 0,21.33333 7.8333,40 23.5,56 15.6667,16 34.5,24 56.5,24 z m 0,-560 c 22,0 40.8333,-7.83333 56.5,-23.5 15.6667,-15.66667 23.5,-34.5 23.5,-56.5 0,-22 -7.8333,-40.83333 -23.5,-56.5 -15.6667,-15.66667 -34.5,-23.5 -56.5,-23.5 -22,0 -40.8333,7.83333 -56.5,23.5 -15.6667,15.66667 -23.5,34.5 -23.5,56.5 0,22 7.8333,40.83333 23.5,56.5 15.6667,15.66667 34.5,23.5 56.5,23.5 z"
         id="path1-76"
         sodipodi:nodetypes="csssssccsssssssccsccsssssssssscccsssssssssssssssssssssssssssssssssssssssssssss"
         sodipodi:insensitive="true"
         style="display:none"
         inkscape:label="pathLINK" /></g></g></svg>
