<?xml version="1.0" encoding="UTF-8" standalone="no"?>
<svg
   height="24"
   viewBox="0 -960 960 960"
   width="24"
   fill="#bdd6ac"
   version="1.1"
   id="svg1"
   sodipodi:docname="SCM_DolphinTiming_Collection.svg"
   inkscape:version="1.4 (86a8ad7, 2024-10-11)"
   inkscape:export-filename="..\PNG\time_manual_Blue.png"
   inkscape:export-xdpi="256"
   inkscape:export-ydpi="256"
   xml:space="preserve"
   inkscape:export-batch-path="..\SVG"
   inkscape:export-batch-name=""
   xmlns:inkscape="http://www.inkscape.org/namespaces/inkscape"
   xmlns:sodipodi="http://sodipodi.sourceforge.net/DTD/sodipodi-0.dtd"
   xmlns="http://www.w3.org/2000/svg"
   xmlns:svg="http://www.w3.org/2000/svg"><defs
     id="defs1" /><sodipodi:namedview
     id="namedview1"
     pagecolor="#ffffff"
     bordercolor="#666666"
     borderopacity="1.0"
     inkscape:showpageshadow="2"
     inkscape:pageopacity="0.0"
     inkscape:pagecheckerboard="0"
     inkscape:deskcolor="#d1d1d1"
     showgrid="false"
     inkscape:zoom="6.9398215"
     inkscape:cx="61.240768"
     inkscape:cy="36.816509"
     inkscape:window-width="2560"
     inkscape:window-height="1377"
     inkscape:window-x="-8"
     inkscape:window-y="-8"
     inkscape:window-maximized="1"
     inkscape:current-layer="svg1"
     showguides="true"><sodipodi:guide
       position="-2815.4151,2028.8553"
       orientation="0,-1"
       id="guide44"
       inkscape:locked="false" /><sodipodi:guide
       position="6320.7622,2749.9226"
       orientation="1,0"
       id="guide45"
       inkscape:locked="false" /><sodipodi:guide
       position="5368.3791,2813.7338"
       orientation="1,0"
       id="guide46"
       inkscape:locked="false" /><sodipodi:guide
       position="-2403.52,4339.4922"
       orientation="1,0"
       id="guide47"
       inkscape:locked="false" /><sodipodi:guide
       position="3602.398,4310.673"
       orientation="1,0"
       id="guide1"
       inkscape:locked="false" /><sodipodi:guide
       position="1198.8777,4068.5919"
       orientation="1,0"
       id="guide2"
       inkscape:locked="false" /><sodipodi:guide
       position="-0.00015234375,4183.8686"
       orientation="1,0"
       id="guide3"
       inkscape:locked="false" /><sodipodi:guide
       position="-1204.642,4183.8686"
       orientation="1,0"
       id="guide4"
       inkscape:locked="false" /><sodipodi:guide
       position="-2662.8424,959.99992"
       orientation="0,-1"
       id="guide5"
       inkscape:locked="false" /><inkscape:page
       x="0"
       y="0"
       width="960"
       height="960"
       id="page3"
       margin="0"
       bleed="0"
       inkscape:label="PostDTData" /><sodipodi:guide
       position="2397.7561,4443.2413"
       orientation="1,0"
       id="guide6"
       inkscape:locked="false" /><sodipodi:guide
       position="1708.9773,3094.5034"
       orientation="0,-1"
       id="guide7"
       inkscape:locked="false" /><sodipodi:guide
       position="-3602.3983,4114.7026"
       orientation="1,0"
       id="guide8"
       inkscape:locked="false" /></sodipodi:namedview><path
     d="m 159.99995,-279.99992 q -33,0 -56.5,-23.5 -23.500002,-23.5 -23.500002,-56.5 v -314 q 0,-15 8.5,-29.5 8.5,-14.5 23.500002,-22.5 l 308,-154 302,154 q 12,6 20.5,19 8.5,13 11.5,27 h -117 l -217,-110 -260,129 z m 120,160 q -33,0 -56.5,-23.5 -23.5,-23.5 -23.5,-56.5 v -360 q 0,-33 23.5,-56.5 23.5,-23.5 56.5,-23.5 h 520 q 33,0 56.5,23.5 23.5,23.5 23.5,56.5 v 360 q 0,33 -23.5,56.5 -23.5,23.5 -56.5,23.5 z m 260,-226 -260,-134 v 280 h 520 v -280 z m 0,-80 260,-134 h -520 z m 260,-134 h -520 z"
     id="path1-7"
     style="fill:#ffffff" /></svg>
