<?xml version="1.0" encoding="UTF-8" standalone="no"?>
<svg
   height="24px"
   viewBox="0 -960 960 960"
   width="24px"
   fill="#BDD6AC"
   version="1.1"
   id="svg1"
   sodipodi:docname="ActiveRT_Collection.svg"
   inkscape:version="1.4 (86a8ad7, 2024-10-11)"
   inkscape:export-filename="..\PNG\time_manual_Blue.png"
   inkscape:export-xdpi="256"
   inkscape:export-ydpi="256"
   xml:space="preserve"
   inkscape:export-batch-path="C:\Users\Ben\Documents\GitHub\SCM_DolphinTiming\ASSETS\INK"
   inkscape:export-batch-name=""
   xmlns:inkscape="http://www.inkscape.org/namespaces/inkscape"
   xmlns:sodipodi="http://sodipodi.sourceforge.net/DTD/sodipodi-0.dtd"
   xmlns="http://www.w3.org/2000/svg"
   xmlns:svg="http://www.w3.org/2000/svg"><defs
     id="defs1" /><sodipodi:namedview
     id="namedview1"
     pagecolor="#ffffff"
     bordercolor="#666666"
     borderopacity="1.0"
     inkscape:showpageshadow="2"
     inkscape:pageopacity="0.0"
     inkscape:pagecheckerboard="0"
     inkscape:deskcolor="#d1d1d1"
     showgrid="false"
     inkscape:zoom="13.879643"
     inkscape:cx="59.871858"
     inkscape:cy="33.754471"
     inkscape:window-width="2560"
     inkscape:window-height="1377"
     inkscape:window-x="-8"
     inkscape:window-y="-8"
     inkscape:window-maximized="1"
     inkscape:current-layer="svg1"
     showguides="true"><inkscape:page
       x="0"
       y="0"
       width="960"
       height="960"
       id="page34"
       margin="0"
       bleed="0"
       inkscape:label="ActiveRTAutomatic" /><inkscape:page
       x="970"
       y="0"
       width="960"
       height="960"
       id="page35"
       margin="0"
       bleed="0"
       inkscape:label="ActiveRTManual" /><inkscape:page
       x="1940"
       y="0"
       width="960"
       height="960"
       id="page36"
       margin="0"
       bleed="0"
       inkscape:label="ActiveRTUser" /><inkscape:page
       x="2910"
       y="0"
       width="960"
       height="960"
       id="page37"
       margin="0"
       bleed="0"
       inkscape:label="ActiveRTSplit" /><inkscape:page
       x="3880"
       y="0"
       width="960"
       height="960"
       id="page38"
       margin="0"
       bleed="0"
       inkscape:label="ActiveRTNone" /><inkscape:page
       x="0"
       y="1065.6481"
       width="960"
       height="960"
       id="page39"
       margin="0"
       bleed="0"
       inkscape:label="DisableAutomatic" /><inkscape:page
       x="970"
       y="1065.6481"
       width="960"
       height="960"
       id="page40"
       margin="0"
       bleed="0"
       inkscape:label="DisableManual" /><inkscape:page
       x="1940"
       y="1065.6481"
       width="960"
       height="960"
       id="page41"
       margin="0"
       bleed="0"
       inkscape:label="DisableUser" /><inkscape:page
       x="2910"
       y="1065.6481"
       width="960"
       height="960"
       id="page42"
       margin="0"
       bleed="0"
       inkscape:label="DisableSplit" /><inkscape:page
       x="3880"
       y="1065.6481"
       width="960"
       height="960"
       id="page43"
       margin="0"
       bleed="0"
       inkscape:label="DisableNone" /><sodipodi:guide
       position="-325.43743,-105.64807"
       orientation="0,-1"
       id="guide44"
       inkscape:locked="false" /><sodipodi:guide
       position="8810.74,615.41919"
       orientation="1,0"
       id="guide45"
       inkscape:locked="false" /><sodipodi:guide
       position="7858.3569,679.23045"
       orientation="1,0"
       id="guide46"
       inkscape:locked="false" /><sodipodi:guide
       position="0,1212.6797"
       orientation="1,0"
       id="guide47"
       inkscape:locked="false" /><sodipodi:guide
       position="4840,960"
       orientation="1,0"
       id="guide1"
       inkscape:locked="false" /><sodipodi:guide
       position="2910,0"
       orientation="1,0"
       id="guide2"
       inkscape:locked="false" /><sodipodi:guide
       position="1940,662.38724"
       orientation="1,0"
       id="guide3"
       inkscape:locked="false" /><sodipodi:guide
       position="970,569.38325"
       orientation="1,0"
       id="guide4"
       inkscape:locked="false" /><inkscape:page
       x="0"
       y="2134.5034"
       width="960"
       height="960"
       id="page4"
       margin="0"
       bleed="0"
       inkscape:label="DisableLockWatchTime"
       inkscape:export-filename="..\PNG\DisableLockWatchTime.png"
       inkscape:export-xdpi="256"
       inkscape:export-ydpi="256" /><sodipodi:guide
       position="-172.86472,-1174.5035"
       orientation="0,-1"
       id="guide5"
       inkscape:locked="false" /></sodipodi:namedview><g
     inkscape:groupmode="layer"
     id="layer2"
     inkscape:label="ActiveRT_Automatic"
     style="display:inline"><path
       d="m 290.42043,-237.54674 h 87.68055 l 27.25206,-77.14422 h 146.92417 l 27.25206,77.14422 h 90.0503 L 527.39489,-610.04311 H 432.60511 Z M 427.86562,-378.61046 480,-524.08241 l 50.94951,145.47195 z m -90.0503,-476.09003 v -88.16482 h 284.36936 v 88.16482 z M 480,-17.134693 q -87.68055,0 -165.28969,-31.408714 -77.60913,-31.40872 -135.66788,-85.409673 -58.05874,-54.00095 -91.827601,-126.1859 -33.768861,-72.18495 -33.768861,-153.7374 0,-81.55246 33.768861,-153.73741 33.768861,-72.18495 91.827601,-126.1859 58.05875,-54.00095 135.66788,-85.40967 77.60914,-31.40872 165.28969,-31.40872 73.46208,0 140.9998,22.04121 67.53773,22.0412 126.78134,63.91949 l 66.35285,-61.71537 66.35285,61.71537 -66.35285,61.71538 q 45.02515,55.10301 68.72259,117.92045 23.69745,62.81743 23.69745,131.14517 0,81.55245 -33.76886,153.7374 -33.76886,72.18495 -91.8276,126.1859 -58.05875,54.000953 -135.66788,85.409673 Q 567.68055,-17.134693 480,-17.134693 Z m 0,-88.164817 q 137.44519,0 234.60472,-90.36894 97.15953,-90.36894 97.15953,-218.20793 0,-127.83899 -97.15953,-218.20794 Q 617.44519,-722.45326 480,-722.45326 q -137.44519,0 -234.60472,90.36894 -97.15953,90.36895 -97.15953,218.20794 0,127.83899 97.15953,218.20793 97.15953,90.36894 234.60472,90.36894 z m 0,-308.57687 z"
       id="path1"
       style="display:inline;fill:#9acd32;stroke-width:1.14272" /></g><g
     inkscape:groupmode="layer"
     id="layer1"
     inkscape:label="ActiveRT_Manual"
     style="display:inline;fill:#ffa500"
     transform="matrix(1.1283193,0,0,1.1283193,907.92448,85.864009)"><rect
       style="opacity:1;fill:#ffa500;fill-opacity:0;stroke:#ffa500;stroke-width:93.7436;stroke-miterlimit:0;stroke-dasharray:none;stroke-dashoffset:0.8406;stroke-opacity:1;paint-order:markers stroke fill"
       id="rect3"
       width="709.09204"
       height="709.09198"
       x="125.88139"
       y="-856.05652"
       rx="399.24506"
       ry="123.68607" /><text
       xml:space="preserve"
       style="font-size:602.34px;line-height:1.25;font-family:'Segoe UI';-inkscape-font-specification:'Segoe UI, Normal';text-align:center;text-anchor:middle;fill:#ffa500;fill-opacity:1;stroke-width:45.1755"
       x="480.1333"
       y="-290.63266"
       id="text1"
       inkscape:label="text1"><tspan
         sodipodi:role="line"
         id="tspan1"
         style="font-style:normal;font-variant:normal;font-weight:bold;font-stretch:normal;font-size:602.34px;font-family:'Segoe UI';-inkscape-font-specification:'Segoe UI Bold';fill:#ffa500;fill-opacity:1;stroke-width:45.1755"
         x="480.1333"
         y="-290.63266">M</tspan></text></g><g
     style="display:inline;fill:#ff7f50"
     id="g29"
     transform="matrix(1.0191251,0,0,1.0909091,1930.8199,65.45455)"
     inkscape:label="ActiveRT_User"><path
       d="M 51.068655,-120 480,-880 908.93135,-120 Z M 152.45243,-180 H 807.54757 L 480,-760 Z m 331.88989,-14.53564 c 16.25386,0 29.76915,-5.50247 40.54589,-16.50743 10.77674,-10.99227 16.16511,-24.62168 16.16511,-40.88821 0,-16.25386 -5.50247,-29.76915 -16.50743,-40.54589 -10.99227,-10.77674 -24.62168,-16.16511 -40.88821,-16.16511 -16.25386,0 -29.76915,5.50247 -40.54589,16.50743 -10.77674,10.99227 -16.16511,24.62168 -16.16511,40.88821 0,16.25386 5.50247,29.76915 16.50743,40.54589 10.99227,10.77674 24.62168,16.16511 40.88821,16.16511 z m -43.52566,-125.87431 h 86.36668 L 543.18,-613.10126 H 424.82 Z"
       id="path1-5"
       sodipodi:nodetypes="ccccccccscscscscsccccc"
       style="fill:#ff7f50" /></g><g
     style="display:inline;fill:#8b7dbe;fill-opacity:1"
     id="g31"
     transform="matrix(1.2318737,0,0,1.2318737,2798.7006,111.29938)"
     inkscape:label="ActiveRT_Split"><path
       d="m 120,-200 v -240 h 720 v 240 z m 0,-320 v -80 h 720 v 80 z m 0,-160 v -80 h 720 v 80 z"
       id="path1-1"
       style="fill:#8b7dbe;fill-opacity:1" /></g><g
     style="fill:#b87e9f"
     id="g43"
     transform="translate(3880)"
     inkscape:label="ActiveRT_None"><path
       d="M 480,-80 Q 397,-80 324,-111.5 251,-143 197,-197 143,-251 111.5,-324 80,-397 80,-480 q 0,-83 31.5,-156 31.5,-73 85.5,-127 54,-54 127,-85.5 73,-31.5 156,-31.5 83,0 156,31.5 73,31.5 127,85.5 54,54 85.5,127 31.5,73 31.5,156 0,83 -31.5,156 -31.5,73 -85.5,127 -54,54 -127,85.5 Q 563,-80 480,-80 Z m 0,-80 q 54,0 104,-17.5 50,-17.5 92,-50.5 L 228,-676 q -33,42 -50.5,92 -17.5,50 -17.5,104 0,134 93,227 93,93 227,93 z m 252,-124 q 33,-42 50.5,-92 17.5,-50 17.5,-104 0,-134 -93,-227 -93,-93 -227,-93 -54,0 -104,17.5 -50,17.5 -92,50.5 z"
       id="path1-6" /></g><g
     style="display:inline;fill:#9acd32"
     id="g28"
     transform="matrix(1.2350072,0,0,1.2350072,-112.8035,1178.4515)"
     inkscape:label="DisableAutomatic"><path
       d="m 336,-280 144,-144 144,144 56,-56 -144,-144 144,-144 -56,-56 -144,144 -144,-144 -56,56 144,144 -144,144 z m -136,160 q -33,0 -56.5,-23.5 Q 120,-167 120,-200 v -560 q 0,-33 23.5,-56.5 Q 167,-840 200,-840 h 560 q 33,0 56.5,23.5 23.5,23.5 23.5,56.5 v 560 q 0,33 -23.5,56.5 Q 793,-120 760,-120 Z m 0,-80 H 760 V -760 H 200 Z m 0,-560 v 560 z"
       id="path28"
       style="fill:#9acd32" /></g><g
     style="display:inline;fill:#ffa500"
     id="g1"
     transform="matrix(1.2350072,0,0,1.2350072,857.1965,1178.4515)"
     inkscape:label="DisableManual"><path
       d="m 336,-280 144,-144 144,144 56,-56 -144,-144 144,-144 -56,-56 -144,144 -144,-144 -56,56 144,144 -144,144 z m -136,160 q -33,0 -56.5,-23.5 Q 120,-167 120,-200 v -560 q 0,-33 23.5,-56.5 Q 167,-840 200,-840 h 560 q 33,0 56.5,23.5 23.5,23.5 23.5,56.5 v 560 q 0,33 -23.5,56.5 Q 793,-120 760,-120 Z m 0,-80 H 760 V -760 H 200 Z m 0,-560 v 560 z"
       id="path1-88"
       style="fill:#ffa500" /></g><g
     style="display:inline;fill:#ff7f50;fill-opacity:1"
     id="g30"
     transform="matrix(1.2350072,0,0,1.2350072,1827.1965,1178.4515)"
     inkscape:label="DisableUser"><circle
       style="opacity:1;fill:#ff7f50;fill-opacity:1;stroke:none;stroke-width:55.1579;stroke-opacity:1;paint-order:markers stroke fill"
       id="path46"
       cx="7098.3833"
       cy="-308.4407"
       r="208.98187"
       transform="matrix(0.80971188,0,0,0.80971188,-5406.6053,-91.338302)" /></g><g
     style="display:inline;fill:#ff7f50"
     id="g32"
     transform="matrix(1.2350072,0,0,1.2350072,2661.8727,1361.0697)"
     inkscape:label="DisableSplit"><path
       style="opacity:1;fill:#8b7dbe;fill-opacity:1;stroke:none;stroke-width:0.0282009;stroke-opacity:1;paint-order:markers stroke fill"
       d="M 6.6976496,17.301173 5.8519217,16.455092 8.0796011,14.227279 10.30728,11.999466 8.079542,9.7715938 5.8518036,7.5437214 6.7048127,6.6907123 7.5578218,5.8377032 9.7856942,8.0654416 12.013566,10.29318 14.234504,8.0723758 16.455442,5.8515716 17.308346,6.70482 18.161251,7.5580684 15.947535,9.7716496 c -1.217544,1.2174694 -2.213716,2.2200544 -2.213716,2.2279674 0,0.0079 0.98985,1.004121 2.199667,2.213797 1.209817,1.209677 2.199667,2.212041 2.199667,2.227477 0,0.01544 -0.377484,0.405706 -0.838854,0.867268 l -0.838854,0.839204 -2.22094,-2.220806 -2.220939,-2.220805 -2.2208839,2.220751 c -1.2214863,1.221413 -2.2272788,2.22075 -2.2350944,2.22075 -0.00782,0 -0.3947878,-0.380736 -0.8599381,-0.84608 z"
       id="path34"
       transform="matrix(32.388475,0,0,32.388475,91.338269,-868.66166)" /></g><g
     style="display:inline;fill:#ff7f50"
     id="g44"
     transform="matrix(1.2350072,0,0,1.2350072,1674.9379,1360.7606)"
     inkscape:label="DisableNone"><path
       d="m 1906.8411,-280 144,-144 144,144 56,-56 -144,-144 144,-144 -56,-56 -144,144 -144,-144 -56,56 144,144 -144,144 z"
       id="path43"
       style="display:inline;fill:#b87e9f;fill-opacity:1"
       sodipodi:nodetypes="ccccccccccccc" /></g><g
     style="fill:#ff7f50;fill-opacity:1"
     id="g5"
     transform="matrix(1.0617554,0,0,1.0617554,-29.642591,2185.3811)"><path
       d="m 240,-80 q -33,0 -56.5,-23.5 Q 160,-127 160,-160 v -400 q 0,-33 23.5,-56.5 Q 207,-640 240,-640 h 40 v -80 q 0,-83 58.5,-141.5 Q 397,-920 480,-920 q 83,0 141.5,58.5 Q 680,-803 680,-720 v 80 h 40 q 33,0 56.5,23.5 23.5,23.5 23.5,56.5 v 400 q 0,33 -23.5,56.5 Q 753,-80 720,-80 Z m 0,-80 H 720 V -560 H 240 Z m 240,-120 q 33,0 56.5,-23.5 Q 560,-327 560,-360 560,-393 536.5,-416.5 513,-440 480,-440 q -33,0 -56.5,23.5 -23.5,23.5 -23.5,56.5 0,33 23.5,56.5 Q 447,-280 480,-280 Z M 360,-640 h 240 v -80 q 0,-50 -35,-85 -35,-35 -85,-35 -50,0 -85,35 -35,35 -35,85 z m -120,480 v -400 z"
       id="path1-55"
       style="fill:#ff7f50;fill-opacity:1" /></g></svg>
