<?xml version="1.0" encoding="UTF-8" standalone="no"?>
<svg
   height="24"
   viewBox="0 -960 960 960"
   width="24"
   fill="#bdd6ac"
   version="1.1"
   id="svg1"
   sodipodi:docname="ActiveRT_Collection.svg"
   inkscape:version="1.4 (86a8ad7, 2024-10-11)"
   inkscape:export-filename="..\PNG\time_manual_Blue.png"
   inkscape:export-xdpi="256"
   inkscape:export-ydpi="256"
   xml:space="preserve"
   inkscape:export-batch-path="C:\Users\Ben\Documents\GitHub\SCM_DolphinTiming\ASSETS\INK"
   inkscape:export-batch-name=""
   xmlns:inkscape="http://www.inkscape.org/namespaces/inkscape"
   xmlns:sodipodi="http://sodipodi.sourceforge.net/DTD/sodipodi-0.dtd"
   xmlns="http://www.w3.org/2000/svg"
   xmlns:svg="http://www.w3.org/2000/svg"><defs
     id="defs1" /><sodipodi:namedview
     id="namedview1"
     pagecolor="#ffffff"
     bordercolor="#666666"
     borderopacity="1.0"
     inkscape:showpageshadow="2"
     inkscape:pageopacity="0.0"
     inkscape:pagecheckerboard="0"
     inkscape:deskcolor="#d1d1d1"
     showgrid="false"
     inkscape:zoom="6.268486"
     inkscape:cx="117.73178"
     inkscape:cy="21.935121"
     inkscape:window-width="2560"
     inkscape:window-height="1377"
     inkscape:window-x="-8"
     inkscape:window-y="-8"
     inkscape:window-maximized="1"
     inkscape:current-layer="g30"
     showguides="true"><inkscape:page
       x="0"
       y="0"
       width="960"
       height="960"
       id="page36"
       margin="0"
       bleed="0"
       inkscape:label="ActiveRTUser" /><sodipodi:guide
       position="6790,50.689519"
       orientation="0,-1"
       id="guide44"
       inkscape:locked="false" /><sodipodi:guide
       position="6870.74,615.41919"
       orientation="1,0"
       id="guide45"
       inkscape:locked="false" /><sodipodi:guide
       position="5918.3569,679.23045"
       orientation="1,0"
       id="guide46"
       inkscape:locked="false" /></sodipodi:namedview><g
     style="display:inline;fill:#ff7f50"
     id="g29"
     transform="matrix(1.0191251,0,0,1.0909091,-9.1801,65.45455)"
     inkscape:label="ActiveRT_User"><path
       d="M 51.068655,-120 480,-880 908.93135,-120 Z M 152.45243,-180 H 807.54757 L 480,-760 Z m 331.88989,-29.94668 c 16.25386,0 29.76915,-5.50247 40.54589,-16.50743 10.77674,-10.99227 16.16511,-24.62168 16.16511,-40.88821 0,-16.25386 -5.50247,-29.76915 -16.50743,-40.54589 -10.99227,-10.77674 -24.62168,-16.16511 -40.88821,-16.16511 -16.25386,0 -29.76915,5.50247 -40.54589,16.50743 -10.77674,10.99227 -16.16511,24.62168 -16.16511,40.88821 0,16.25386 5.50247,29.76915 16.50743,40.54589 10.99227,10.77674 24.62168,16.16511 40.88821,16.16511 z m -43.52566,-125.87431 h 86.36668 v -322.43563 h -86.36668 z"
       id="path1-5"
       sodipodi:nodetypes="ccccccccscscscscsccccc"
       style="fill:#ff7f50" /></g></svg>
