<?xml version="1.0" encoding="UTF-8" standalone="no"?>
<svg
   height="24"
   viewBox="0 -960 960 960"
   width="24"
   fill="#bdd6ac"
   version="1.1"
   id="svg1"
   sodipodi:docname="ActiveRT_Collection.svg"
   inkscape:version="1.4 (86a8ad7, 2024-10-11)"
   inkscape:export-filename="..\PNG\time_manual_Blue.png"
   inkscape:export-xdpi="256"
   inkscape:export-ydpi="256"
   xml:space="preserve"
   inkscape:export-batch-path="C:\Users\Ben\Documents\GitHub\SCM_DolphinTiming\ASSETS\INK"
   inkscape:export-batch-name=""
   xmlns:inkscape="http://www.inkscape.org/namespaces/inkscape"
   xmlns:sodipodi="http://sodipodi.sourceforge.net/DTD/sodipodi-0.dtd"
   xmlns="http://www.w3.org/2000/svg"
   xmlns:svg="http://www.w3.org/2000/svg"><defs
     id="defs1" /><sodipodi:namedview
     id="namedview1"
     pagecolor="#ffffff"
     bordercolor="#666666"
     borderopacity="1.0"
     inkscape:showpageshadow="2"
     inkscape:pageopacity="0.0"
     inkscape:pagecheckerboard="0"
     inkscape:deskcolor="#d1d1d1"
     showgrid="false"
     inkscape:zoom="6.268486"
     inkscape:cx="117.73178"
     inkscape:cy="21.935121"
     inkscape:window-width="2560"
     inkscape:window-height="1377"
     inkscape:window-x="-8"
     inkscape:window-y="-8"
     inkscape:window-maximized="1"
     inkscape:current-layer="g30"
     showguides="true"><inkscape:page
       x="0"
       y="0"
       width="960"
       height="960"
       id="page34"
       margin="0"
       bleed="0"
       inkscape:label="ActiveRTAutomatic" /><sodipodi:guide
       position="8730,50.689519"
       orientation="0,-1"
       id="guide44"
       inkscape:locked="false" /><sodipodi:guide
       position="8810.74,615.41919"
       orientation="1,0"
       id="guide45"
       inkscape:locked="false" /><sodipodi:guide
       position="7858.3569,679.23045"
       orientation="1,0"
       id="guide46"
       inkscape:locked="false" /></sodipodi:namedview><g
     inkscape:groupmode="layer"
     id="layer2"
     inkscape:label="ActiveRT_Automatic"
     style="display:inline"><path
       d="m 290.42043,-237.54674 h 87.68055 l 27.25206,-77.14422 h 146.92417 l 27.25206,77.14422 h 90.0503 L 527.39489,-610.04311 H 432.60511 Z M 427.86562,-378.61046 480,-524.08241 l 50.94951,145.47195 z m -90.0503,-476.09003 v -88.16482 h 284.36936 v 88.16482 z M 480,-17.134693 q -87.68055,0 -165.28969,-31.408714 -77.60913,-31.40872 -135.66788,-85.409673 -58.05874,-54.00095 -91.827601,-126.1859 -33.768861,-72.18495 -33.768861,-153.7374 0,-81.55246 33.768861,-153.73741 33.768861,-72.18495 91.827601,-126.1859 58.05875,-54.00095 135.66788,-85.40967 77.60914,-31.40872 165.28969,-31.40872 73.46208,0 140.9998,22.04121 67.53773,22.0412 126.78134,63.91949 l 66.35285,-61.71537 66.35285,61.71537 -66.35285,61.71538 q 45.02515,55.10301 68.72259,117.92045 23.69745,62.81743 23.69745,131.14517 0,81.55245 -33.76886,153.7374 -33.76886,72.18495 -91.8276,126.1859 -58.05875,54.000953 -135.66788,85.409673 Q 567.68055,-17.134693 480,-17.134693 Z m 0,-88.164817 q 137.44519,0 234.60472,-90.36894 97.15953,-90.36894 97.15953,-218.20793 0,-127.83899 -97.15953,-218.20794 Q 617.44519,-722.45326 480,-722.45326 q -137.44519,0 -234.60472,90.36894 -97.15953,90.36895 -97.15953,218.20794 0,127.83899 97.15953,218.20793 97.15953,90.36894 234.60472,90.36894 z m 0,-308.57687 z"
       id="path1"
       style="display:inline;fill:#9acd32;stroke-width:1.14272" /></g></svg>
