<?xml version="1.0" encoding="UTF-8" standalone="no"?>
<svg
   height="24"
   viewBox="0 -960 960 960"
   width="24"
   fill="#bdd6ac"
   version="1.1"
   id="svg1"
   sodipodi:docname="ActiveRT_Collection.svg"
   inkscape:version="1.4 (86a8ad7, 2024-10-11)"
   inkscape:export-filename="..\PNG\time_manual_Blue.png"
   inkscape:export-xdpi="256"
   inkscape:export-ydpi="256"
   xml:space="preserve"
   inkscape:export-batch-path="C:\Users\Ben\Documents\GitHub\SCM_DolphinTiming\ASSETS\INK"
   inkscape:export-batch-name=""
   xmlns:inkscape="http://www.inkscape.org/namespaces/inkscape"
   xmlns:sodipodi="http://sodipodi.sourceforge.net/DTD/sodipodi-0.dtd"
   xmlns="http://www.w3.org/2000/svg"
   xmlns:svg="http://www.w3.org/2000/svg"><defs
     id="defs1" /><sodipodi:namedview
     id="namedview1"
     pagecolor="#ffffff"
     bordercolor="#666666"
     borderopacity="1.0"
     inkscape:showpageshadow="2"
     inkscape:pageopacity="0.0"
     inkscape:pagecheckerboard="0"
     inkscape:deskcolor="#d1d1d1"
     showgrid="false"
     inkscape:zoom="6.268486"
     inkscape:cx="117.73178"
     inkscape:cy="21.935121"
     inkscape:window-width="2560"
     inkscape:window-height="1377"
     inkscape:window-x="-8"
     inkscape:window-y="-8"
     inkscape:window-maximized="1"
     inkscape:current-layer="g30"
     showguides="true"><inkscape:page
       x="0"
       y="0"
       width="960"
       height="960"
       id="page39"
       margin="0"
       bleed="0"
       inkscape:label="DisableAutomatic" /><sodipodi:guide
       position="3880,50.689519"
       orientation="0,-1"
       id="guide44"
       inkscape:locked="false" /><sodipodi:guide
       position="3960.74,615.41919"
       orientation="1,0"
       id="guide45"
       inkscape:locked="false" /><sodipodi:guide
       position="3008.3569,679.23045"
       orientation="1,0"
       id="guide46"
       inkscape:locked="false" /></sodipodi:namedview><g
     style="display:inline;fill:#9acd32"
     id="g28"
     transform="matrix(1.2350072,0,0,1.2350072,-112.8035,112.80346)"
     inkscape:label="DisableAutomatic"><path
       d="m 336,-280 144,-144 144,144 56,-56 -144,-144 144,-144 -56,-56 -144,144 -144,-144 -56,56 144,144 -144,144 z m -136,160 q -33,0 -56.5,-23.5 Q 120,-167 120,-200 v -560 q 0,-33 23.5,-56.5 Q 167,-840 200,-840 h 560 q 33,0 56.5,23.5 23.5,23.5 23.5,56.5 v 560 q 0,33 -23.5,56.5 Q 793,-120 760,-120 Z m 0,-80 H 760 V -760 H 200 Z m 0,-560 v 560 z"
       id="path28"
       style="fill:#9acd32" /></g></svg>
