<?xml version="1.0" encoding="UTF-8" standalone="no"?>
<svg
   height="24"
   viewBox="0 -960 960 960"
   width="24"
   fill="#bdd6ac"
   version="1.1"
   id="svg1"
   sodipodi:docname="ActiveRT_Collection.svg"
   inkscape:version="1.4 (86a8ad7, 2024-10-11)"
   inkscape:export-filename="..\PNG\time_manual_Blue.png"
   inkscape:export-xdpi="256"
   inkscape:export-ydpi="256"
   xml:space="preserve"
   inkscape:export-batch-path="C:\Users\Ben\Documents\GitHub\SCM_DolphinTiming\ASSETS\INK"
   inkscape:export-batch-name=""
   xmlns:inkscape="http://www.inkscape.org/namespaces/inkscape"
   xmlns:sodipodi="http://sodipodi.sourceforge.net/DTD/sodipodi-0.dtd"
   xmlns="http://www.w3.org/2000/svg"
   xmlns:svg="http://www.w3.org/2000/svg"><defs
     id="defs1" /><sodipodi:namedview
     id="namedview1"
     pagecolor="#ffffff"
     bordercolor="#666666"
     borderopacity="1.0"
     inkscape:showpageshadow="2"
     inkscape:pageopacity="0.0"
     inkscape:pagecheckerboard="0"
     inkscape:deskcolor="#d1d1d1"
     showgrid="false"
     inkscape:zoom="6.9398214"
     inkscape:cx="19.597046"
     inkscape:cy="45.606361"
     inkscape:window-width="2560"
     inkscape:window-height="1377"
     inkscape:window-x="-8"
     inkscape:window-y="-8"
     inkscape:window-maximized="1"
     inkscape:current-layer="svg1"
     showguides="true"><sodipodi:guide
       position="-325.4374,2028.8553"
       orientation="0,-1"
       id="guide44"
       inkscape:locked="false" /><sodipodi:guide
       position="8810.74,2749.9226"
       orientation="1,0"
       id="guide45"
       inkscape:locked="false" /><sodipodi:guide
       position="7858.3569,2813.7338"
       orientation="1,0"
       id="guide46"
       inkscape:locked="false" /><sodipodi:guide
       position="0,3347.1831"
       orientation="1,0"
       id="guide47"
       inkscape:locked="false" /><sodipodi:guide
       position="4840,3094.5034"
       orientation="1,0"
       id="guide1"
       inkscape:locked="false" /><sodipodi:guide
       position="2910,2134.5034"
       orientation="1,0"
       id="guide2"
       inkscape:locked="false" /><sodipodi:guide
       position="1940,2796.8906"
       orientation="1,0"
       id="guide3"
       inkscape:locked="false" /><sodipodi:guide
       position="970,2703.8866"
       orientation="1,0"
       id="guide4"
       inkscape:locked="false" /><inkscape:page
       x="0"
       y="0"
       width="960"
       height="960"
       id="page4"
       margin="0"
       bleed="0"
       inkscape:label="DisableLockWatchTime" /><sodipodi:guide
       position="-172.8647,959.99992"
       orientation="0,-1"
       id="guide5"
       inkscape:locked="false" /></sodipodi:namedview><g
     style="fill:#ff7f50;fill-opacity:1"
     id="g5"
     transform="matrix(1.0617554,0,0,1.0617554,-29.6426,50.877653)"><path
       d="m 240,-80 q -33,0 -56.5,-23.5 Q 160,-127 160,-160 v -400 q 0,-33 23.5,-56.5 Q 207,-640 240,-640 h 40 v -80 q 0,-83 58.5,-141.5 Q 397,-920 480,-920 q 83,0 141.5,58.5 Q 680,-803 680,-720 v 80 h 40 q 33,0 56.5,23.5 23.5,23.5 23.5,56.5 v 400 q 0,33 -23.5,56.5 Q 753,-80 720,-80 Z m 0,-80 H 720 V -560 H 240 Z m 240,-120 q 33,0 56.5,-23.5 Q 560,-327 560,-360 560,-393 536.5,-416.5 513,-440 480,-440 q -33,0 -56.5,23.5 -23.5,23.5 -23.5,56.5 0,33 23.5,56.5 Q 447,-280 480,-280 Z M 360,-640 h 240 v -80 q 0,-50 -35,-85 -35,-35 -85,-35 -50,0 -85,35 -35,35 -35,85 z m -120,480 v -400 z"
       id="path1-55"
       style="fill:#ff7f50;fill-opacity:1" /></g></svg>
