<?xml version="1.0" encoding="UTF-8" standalone="no"?>
<svg
   height="24px"
   viewBox="0 -960 960 960"
   width="24px"
   fill="#BDD6AC"
   version="1.1"
   id="svg1"
   sodipodi:docname="time_manua_Bluel.svg"
   inkscape:version="1.4 (86a8ad7, 2024-10-11)"
   inkscape:export-filename="..\PNG\time_manual_Blue.png"
   inkscape:export-xdpi="256"
   inkscape:export-ydpi="256"
   xmlns:inkscape="http://www.inkscape.org/namespaces/inkscape"
   xmlns:sodipodi="http://sodipodi.sourceforge.net/DTD/sodipodi-0.dtd"
   xmlns="http://www.w3.org/2000/svg"
   xmlns:svg="http://www.w3.org/2000/svg">
  <defs
     id="defs1" />
  <sodipodi:namedview
     id="namedview1"
     pagecolor="#ffffff"
     bordercolor="#666666"
     borderopacity="1.0"
     inkscape:showpageshadow="2"
     inkscape:pageopacity="0.0"
     inkscape:pagecheckerboard="0"
     inkscape:deskcolor="#d1d1d1"
     showgrid="false"
     inkscape:zoom="21.8125"
     inkscape:cx="-11.002865"
     inkscape:cy="10.796562"
     inkscape:window-width="2560"
     inkscape:window-height="1377"
     inkscape:window-x="-8"
     inkscape:window-y="-8"
     inkscape:window-maximized="1"
     inkscape:current-layer="layer1" />
  <g
     inkscape:groupmode="layer"
     id="layer2"
     inkscape:label="AutoTimeMode"
     style="display:none">
    <path
       d="m 320,-280 h 74 l 23,-70 h 124 l 23,70 h 76 L 520,-618 h -80 z m 116,-128 44,-132 43,132 z m -76,-432 v -80 h 240 v 80 z M 480,-80 Q 406,-80 340.5,-108.5 275,-137 226,-186 177,-235 148.5,-300.5 120,-366 120,-440 120,-514 148.5,-579.5 177,-645 226,-694 275,-743 340.5,-771.5 406,-800 480,-800 q 62,0 119,20 57,20 107,58 l 56,-56 56,56 -56,56 q 38,50 58,107 20,57 20,119 0,74 -28.5,139.5 Q 783,-235 734,-186 685,-137 619.5,-108.5 554,-80 480,-80 Z m 0,-80 q 116,0 198,-82 82,-82 82,-198 0,-116 -82,-198 -82,-82 -198,-82 -116,0 -198,82 -82,82 -82,198 0,116 82,198 82,82 198,82 z m 0,-280 z"
       id="path1" />
  </g>
  <g
     inkscape:groupmode="layer"
     id="layer1"
     inkscape:label="ManualTimeMode">
    <path
       d="m 360.46517,-839.49411 v -80 h 240 v 80 z m 120,759.999996 c -49.3333,0 -95.8333,-9.5 -139.5,-28.499996 -43.6667,-19 -81.8333,-44.83334 -114.5,-77.5 -32.6667,-32.66667 -58.5,-70.83334 -77.5,-114.5 -19,-43.66667 -28.5,-90.16667 -28.5,-139.5 0,-49.33333 9.5,-95.83333 28.5,-139.5 19,-43.66667 44.8333,-81.83333 77.5,-114.5 32.6667,-32.66667 70.8333,-58.5 114.5,-77.5 43.6667,-19 90.1667,-28.5 139.5,-28.5 41.3333,0 81,6.66667 119,20 38,13.33333 73.6667,32.66667 107,58 l 56,-56 56,56 -56,56 c 25.3333,33.33333 44.6667,69 58,107 13.3333,38 20,77.66667 20,119 0,49.33333 -9.5,95.83333 -28.5,139.5 -19,43.66666 -44.8333,81.83333 -77.5,114.5 -32.6667,32.66666 -70.8333,58.5 -114.5,77.5 -43.6667,18.999996 -90.1667,28.499996 -139.5,28.499996 z m 0,-79.999996 c 77.3333,0 143.3333,-27.33334 198,-82 54.6667,-54.66667 82,-120.66667 82,-198 0,-77.33333 -27.3333,-143.33333 -82,-198 -54.6667,-54.66667 -120.6667,-82 -198,-82 -77.3333,0 -143.3333,27.33333 -198,82 -54.6667,54.66667 -82,120.66667 -82,198 0,77.33333 27.3333,143.33333 82,198 54.6667,54.66666 120.6667,82 198,82 z"
       id="path1-8"
       style="display:none;fill:#d6d1e7;fill-opacity:1"
       sodipodi:nodetypes="cccccssssssssssccccsssssssssssssss" />
    <rect
       style="opacity:0.774753;fill:#d6d1e7;fill-opacity:0;stroke:#d6d1e7;stroke-width:83.0039;stroke-miterlimit:0;stroke-dasharray:none;stroke-dashoffset:0.8406;stroke-opacity:1;paint-order:markers stroke fill"
       id="rect3"
       width="627.85498"
       height="627.85492"
       x="166.49991"
       y="-753.30243"
       rx="353.50558"
       ry="109.51598" />
    <text
       xml:space="preserve"
       style="font-size:533.333px;line-height:1.25;font-family:'Segoe UI';-inkscape-font-specification:'Segoe UI, Normal';text-align:center;text-anchor:middle;fill:#84aac1;fill-opacity:1;stroke-width:40"
       x="478.08752"
       y="-254.45476"
       id="text1"
       inkscape:label="text1"><tspan
         sodipodi:role="line"
         id="tspan1"
         style="font-style:normal;font-variant:normal;font-weight:bold;font-stretch:normal;font-size:533.333px;font-family:'Segoe UI';-inkscape-font-specification:'Segoe UI Bold';fill:#d6d1e7;fill-opacity:1;stroke-width:40"
         x="478.08752"
         y="-254.45476">M</tspan></text>
    <path
       d="m 360.39393,-839.07545 v -80 h 240 v 80 z"
       style="display:inline;fill:#d6d1e7;fill-opacity:1"
       id="path1-5" />
  </g>
</svg>
